#define skull_11x11_width 11
#define skull_11x11_height 11
static unsigned char skull_11x11_bits[] = {
   0xfc, 0x01, 0xfe, 0x03, 0xff, 0x07, 0xf9, 0x04, 0x70, 0x00, 0x70, 0x00,
   0xd9, 0x04, 0x8f, 0x07, 0xdc, 0x01, 0xfc, 0x01, 0x54, 0x01 };
